<?xml version="1.0" encoding="utf-8"?>
<!-- Generator: Adobe Illustrator 21.0.0, SVG Export Plug-In . SVG Version: 6.00 Build 0)  -->
<svg version="1.1" id="Layer_1" xmlns="http://www.w3.org/2000/svg" xmlns:xlink="http://www.w3.org/1999/xlink" x="0px" y="0px"
	 viewBox="0 0 144 144" style="enable-background:new 0 0 144 144;" xml:space="preserve">
<style type="text/css">
	.st0{fill:#9B3B68;}
	.st1{fill:#FFFFFF;}
</style>
<g id="XMLID_1_">
	<circle id="XMLID_27_" class="st0" cx="72" cy="72" r="70.9"/>
	<path id="XMLID_11_" class="st1" d="M72,22.9c-4.3,0-7.8,3.7-7.8,8.2c0,4.5,3.5,8.2,7.8,8.2s7.8-3.7,7.8-8.2
		C79.8,26.6,76.3,22.9,72,22.9z M43,22.7c-1,0-2.1,0.4-2.9,1.3c-0.8,0.8-1.2,1.9-1.2,3c0,1.1,0.4,2.2,1.2,3l21.3,22.4
		c0.6,7.6,0.2,16.6,0.2,23.7c0,0.5,0,0.8-0.1,1.2c-0.1,0.5-0.2,1.1-0.2,1.1c-2.4,12-7.2,35.9-7.2,35.9c-0.6,3.1,1.3,6.1,4.2,6.7
		c2.9,0.7,5.8-1.3,6.4-4.4l6.9-34.2h0.9l6.9,34.2c0.6,3.1,3.5,5,6.4,4.4c2.9-0.7,4.8-3.7,4.2-6.7c0,0-4.8-24-7.2-35.9
		c0-0.1-0.1-0.6-0.2-1.1c-0.1-0.5-0.1-0.7-0.1-1.2V52.6c7.1-7.6,14.3-15.1,21.4-22.6c0.8-0.8,1.2-1.9,1.2-3c0-1.1-0.4-2.2-1.2-3
		c-0.8-0.8-1.8-1.3-2.9-1.3s-2.1,0.4-2.9,1.3c0,0-14.3,15.4-15.3,16.2c-0.9,0.7-1.1,0.7-1.9,0.7c-1.2,0-6.4-0.5-8.9-0.5
		c-2.5,0-7.7,0.5-8.9,0.5c-0.8,0-1,0-1.9-0.7c-1-0.8-15.3-16.2-15.3-16.2C45.1,23.1,44.1,22.7,43,22.7z"/>
</g>
</svg>
