<?xml version="1.0" encoding="utf-8"?>
<!-- Generator: Adobe Illustrator 21.0.0, SVG Export Plug-In . SVG Version: 6.00 Build 0)  -->
<svg version="1.1" id="Layer_2" xmlns="http://www.w3.org/2000/svg" xmlns:xlink="http://www.w3.org/1999/xlink" x="0px" y="0px"
	 viewBox="0 0 144 144" style="enable-background:new 0 0 144 144;" xml:space="preserve">
<style type="text/css">
	.st0{fill:#3677A2;}
	.st1{fill:#FFFFFF;}
</style>
<circle class="st0" cx="71.7" cy="72.2" r="70.8"/>
<g>
	<path class="st1" d="M39.1,72.8c0-9.7,4.3-18.4,11-24.4l-2.6-3.2C39.8,51.9,35,61.8,35,72.8c0,15.7,9.9,29.1,23.8,34.3v-4.4
		C47.2,97.7,39.1,86.2,39.1,72.8z M95.8,45.2l-2.6,3.2c6.7,6,11,14.7,11,24.4c0,13.3-8,24.8-19.5,29.8v4.4
		c13.8-5.3,23.6-18.6,23.6-34.3C108.4,61.8,103.5,51.9,95.8,45.2z"/>
	<path class="st1" d="M71.7,47.5c3.9,0,7.1-3.2,7.1-7.1s-3.2-7.1-7.1-7.1s-7.1,3.2-7.1,7.1S67.8,47.5,71.7,47.5z M95.3,32.6
		c-1.8-1.4-4.4-1.2-5.8,0.6L76,50h-8.7L53.8,33.3c-1.4-1.8-4-2.1-5.8-0.6c-1.8,1.4-2.1,4-0.6,5.8l14.7,18.2c0.2,0.3,0.4,0.5,0.7,0.7
		l0.1,51.1c0,2.3,1.9,4.1,4.1,4.1c2.3,0,4.1-1.9,4.1-4.1V83.2c0-0.3,0.3-0.6,0.6-0.6c0.3,0,0.5,0.2,0.6,0.5v25.4
		c0,2.3,1.9,4.1,4.1,4.1c2.3,0,4.1-1.9,4.1-4.1l-0.1-51.1c0.2-0.2,0.5-0.4,0.7-0.7l14.7-18.2C97.4,36.7,97.1,34.1,95.3,32.6z
		 M71.7,65.4c-1.8-1.3-5.8-4.2-5.8-7.4c0-3.8,4.4-4.6,5.8-2c1.4-2.6,5.8-1.8,5.8,2C77.5,61.3,73.4,64.1,71.7,65.4z"/>
</g>
</svg>
