<?xml version="1.0" encoding="utf-8"?>
<!-- Generator: Adobe Illustrator 21.0.0, SVG Export Plug-In . SVG Version: 6.00 Build 0)  -->
<svg version="1.1" id="Layer_1" xmlns="http://www.w3.org/2000/svg" xmlns:xlink="http://www.w3.org/1999/xlink" x="0px" y="0px"
	 viewBox="0 0 144 144" style="enable-background:new 0 0 144 144;" xml:space="preserve">
<style type="text/css">
	.st0{fill:#F48B20;}
	.st1{fill:#FFFFFF;}
</style>
<circle id="XMLID_29_" class="st0" cx="72" cy="72" r="70.8"/>
<g id="XMLID_24_">
	<path id="XMLID_40_" class="st1" d="M72.6,41.6c-9,0-16.3,7.7-16.3,17.2c0,9.5,7.3,17.2,16.3,17.2s16.3-7.7,16.3-17.2
		C88.9,49.2,81.6,41.6,72.6,41.6z M54.2,97.2c1.7,0.7,1,15,1,15h36.2c0,0-0.3-16.4,1.3-15.1s1.9,15.1,1.9,15.1h9.9
		c0-34-16-34-31.5-34s-30.5,0-30.5,34h9.3C51.8,112.1,53,96.7,54.2,97.2z M72.6,66c-2.2-1.2-8.2-5.2-8.6-10.4
		c-0.4-6.1,7.4-5.3,8.6-0.8c1.2-4.5,9-5.3,8.6,0.8C80.9,60.7,74.8,64.7,72.6,66z"/>
	<path id="XMLID_50_" class="st1" d="M105.7,61.8h-9.3c-0.8,0-1.4-0.6-1.4-1.4s0.6-1.4,1.4-1.4h9.3c0.8,0,1.4,0.6,1.4,1.4
		C107.2,61.1,106.5,61.8,105.7,61.8z"/>
	<path id="XMLID_49_" class="st1" d="M73.4,34.5c-0.8,0-1.4-0.6-1.4-1.4v-9c0-0.8,0.6-1.4,1.4-1.4s1.4,0.6,1.4,1.4v9
		C74.8,33.9,74.2,34.5,73.4,34.5z"/>
	<path id="XMLID_48_" class="st1" d="M94.9,48.8c-0.6,0-1.1-0.3-1.3-0.9c-0.3-0.7,0.1-1.5,0.8-1.8l8.2-3.1c0.7-0.3,1.6,0.1,1.8,0.8
		c0.3,0.7-0.1,1.5-0.8,1.8l-8.2,3.1C95.3,48.7,95.1,48.8,94.9,48.8z"/>
	<path id="XMLID_47_" class="st1" d="M87.3,38.5c-0.3,0-0.6-0.1-0.8-0.3c-0.6-0.4-0.8-1.3-0.3-1.9l5.4-7.3c0.5-0.6,1.3-0.8,2-0.3
		c0.6,0.4,0.8,1.3,0.3,1.9l-5.4,7.3C88.2,38.3,87.7,38.5,87.3,38.5z"/>
	<path id="XMLID_46_" class="st1" d="M47.5,61.8h-9.3c-0.8,0-1.4-0.6-1.4-1.4s0.6-1.4,1.4-1.4h9.3c0.8,0,1.4,0.6,1.4,1.4
		C48.9,61.1,48.3,61.8,47.5,61.8z"/>
	<path id="XMLID_45_" class="st1" d="M49.1,48.8c-0.2,0-0.4,0-0.5-0.1l-8.2-3.1c-0.7-0.3-1.1-1.1-0.8-1.8c0.3-0.7,1.1-1.1,1.8-0.8
		l8.2,3.1c0.7,0.3,1.1,1.1,0.8,1.8C50.2,48.4,49.6,48.8,49.1,48.8z"/>
	<path id="XMLID_44_" class="st1" d="M59.5,37.6c-0.4,0-0.9-0.2-1.2-0.6L53,29.6c-0.5-0.6-0.3-1.5,0.3-1.9c0.6-0.4,1.5-0.3,2,0.3
		l5.4,7.3c0.5,0.6,0.3,1.5-0.3,1.9C60.1,37.5,59.8,37.6,59.5,37.6z"/>
</g>
</svg>
