<?xml version="1.0" encoding="utf-8"?>
<!-- Generator: Adobe Illustrator 21.0.0, SVG Export Plug-In . SVG Version: 6.00 Build 0)  -->
<svg version="1.1" id="Layer_1" xmlns="http://www.w3.org/2000/svg" xmlns:xlink="http://www.w3.org/1999/xlink" x="0px" y="0px"
	 viewBox="0 0 144 144" style="enable-background:new 0 0 144 144;" xml:space="preserve">
<style type="text/css">
	.st0{fill:#266289;}
	.st1{fill:#FFFFFF;}
</style>
<circle id="XMLID_28_" class="st0" cx="71.7" cy="72.1" r="70.9"/>
<g id="XMLID_39_">
	<path id="XMLID_20_" class="st1" d="M110.9,68.7l-7.8-6.4L95,44c0,0,0,0,0-0.1l0,0l0,0c-0.6-1.3-2-2.3-3.5-2.3h-5.4
		c-1.4,0-2.6,0.8-3.3,1.9c-0.1,0.1-0.2,0.2-0.3,0.4c-12.1,17.1-8.6,8.8-10.4,29c-0.3,3.7,5.3,4.5,5.7,0.4l0.9-13.5l3.4-4.6l0.2,15.3
		l-2.5,23l-3.9,16c-1.2,4.9,6.2,6.7,7.4,1.8c0,0,3.5-14.1,3.6-14.8c0.3-1.4,0.4-1.8,0.6-3.1l1.2-11.3l0,0c0-0.4,0.5-0.5,0.6,0l0,0
		l1.3,12v16.3c0,5.1,7.6,5.1,7.6,0c0,0,0-14.6,0-15.3c0-1.6-0.2-3.2-0.2-3.2l-2.6-23.4c0-0.1-0.1-0.2-0.1-0.3c0-0.1,0-0.2,0-0.3
		v-8.3c2.2,4,2.9,5.7,3.9,7.1c1.3,1.6,3.1,2.6,8.2,6.7C110.5,75.7,114.4,71.4,110.9,68.7z M90.5,39.6c3.7,0,6.8-3,6.8-6.8
		c0-3.7-3-6.8-6.8-6.8s-6.8,3-6.8,6.8C83.7,36.6,86.7,39.6,90.5,39.6z"/>
	<path id="XMLID_15_" class="st1" d="M68.4,68.6l-6.8-5.9L53.2,44l0,0c-0.6-1.4-2.1-2.5-4.1-2.5h-4.7c-1.3,0-2.5,0.8-3.2,1.8
		c-0.1,0.1-0.2,0.2-0.3,0.3C29,60.4,32.4,52,31.3,71.1c0,0.3,0,0.4,0,0.7c0,3.3,4.9,3.5,4.9,0.1l0.9-12.3l3.4-4.6l0.1,4.8v1.5
		l-3.3,35c0,0,1.6,0,4,0h19.4c1.3,0,1.2-0.8,1.1-1.3c-0.8-10.6-3.3-21.2-8.3-30v-6c2.3,4.2,2.7,5.2,3.8,6.6c1.3,1.6,3.1,2.6,8.2,6.6
		C68.5,74.7,71.9,71.2,68.4,68.6z M53.3,110.7c0,2.5,1.5,3.5,3.1,3.5s3.2-1,3.2-3.6V98h-6.9L53.3,110.7z M41.7,110.7
		c0,2.5,1.5,3.5,3.1,3.6c1.6,0,3.2-1,3.2-3.6L48.2,98h-6.9L41.7,110.7z M49.1,39.7c3.7,0,6.8-3,6.8-6.8c0-3.7-3-6.8-6.8-6.8
		c-3.7,0-6.8,3-6.8,6.8C42.4,36.6,45.4,39.7,49.1,39.7z"/>
</g>
</svg>
