<?xml version="1.0" encoding="utf-8"?>
<!-- Generator: Adobe Illustrator 21.0.0, SVG Export Plug-In . SVG Version: 6.00 Build 0)  -->
<svg version="1.1" id="Layer_2" xmlns="http://www.w3.org/2000/svg" xmlns:xlink="http://www.w3.org/1999/xlink" x="0px" y="0px"
	 viewBox="0 0 144 144" style="enable-background:new 0 0 144 144;" xml:space="preserve">
<style type="text/css">
	.st0{fill:#63B246;}
	.st1{fill:#FFFFFF;}
</style>
<g>
	<circle class="st0" cx="71.8" cy="72" r="70.8"/>
	<g>
		<g>
			<g>
				<path class="st1" d="M51.7,94.7c0.7,2.1,0.8,8.4,0.8,8.4h15.8l-1.6-15.8C65.8,78,54.2,76.8,43.4,60.1c-0.8-1-2.1-1.4-3.3-1l0,0
					c-1.5,0.5-2.4,2.2-1.8,3.7l4.9,10.4c0.6,1.2,2.2,3.3,3.2,4.8l-4.9-3.4c-0.5-0.5-0.9-1.1-1.1-1.8l-4-9.3c-0.6-1.8-0.1-3.7,1.1-5
					c-0.4-2.1-0.5-6.7-0.2-9.6l0.9-8.8c-0.1-1.6-1.5-2.9-3.1-2.9H35c-1.4,0-2.6,1-2.8,2.4l-2,9.2c-0.6,2.9-0.9,5.8-0.9,8.8l0.1,16
					c0.4,3.6,2.5,6.6,5.2,9C35.9,83.8,50.8,92.2,51.7,94.7z M49.5,104.8v8.2h20.8v-8.2H49.5z M67.6,109.7c-0.8,0-1.4-0.6-1.4-1.4
					s0.6-1.4,1.4-1.4s1.4,0.6,1.4,1.4C68.9,109.1,68.3,109.7,67.6,109.7z"/>
				<path class="st1" d="M113.4,48.8l-2-9.2c-0.3-1.4-1.5-2.4-2.8-2.4h-0.1c-1.7-0.1-3,1.2-3.1,2.9l0.9,8.8c0.3,3,0.3,7.5-0.2,9.6
					c1.2,1.3,1.7,3.2,1.1,5l-4,9.3c-0.2,0.7-0.6,1.3-1.1,1.8L97.2,78c1-1.5,2.6-3.6,3.2-4.8l4.9-10.4c0.5-1.5-0.3-3.2-1.8-3.7l0,0
					c-1.2-0.4-2.5,0-3.3,1C89.3,76.8,77.7,78,76.8,87.3l-1.6,15.9H91c0,0,0.1-6.3,0.8-8.4c0.9-2.5,15.8-10.9,17.1-12.1
					c2.7-2.4,4.9-5.4,5.2-9l0.1-16C114.3,54.7,114,51.7,113.4,48.8z M73.2,113h20.9v-8.2H73.2V113z M76,106.9c0.8,0,1.4,0.6,1.4,1.4
					s-0.6,1.4-1.4,1.4s-1.4-0.6-1.4-1.4C74.6,107.6,75.2,106.9,76,106.9z"/>
			</g>
		</g>
		<g>
			<path class="st1" d="M91.3,55.5v-9.7c0-0.5-0.2-0.9-0.5-1.2c-0.3-0.3-0.7-0.5-1.2-0.5H78.3V32.7c0-0.5-0.2-0.9-0.5-1.2
				c-0.3-0.3-0.7-0.5-1.2-0.5h-9.7c-0.5,0-0.9,0.2-1.2,0.5c-0.3,0.3-0.5,0.7-0.5,1.2v11.4H53.9c-0.5,0-0.9,0.2-1.2,0.5
				c-0.3,0.3-0.5,0.7-0.5,1.2v9.7c0,0.5,0.2,0.9,0.5,1.2c0.3,0.3,0.7,0.5,1.2,0.5h11.4v11.4c0,0.5,0.2,0.9,0.5,1.2s0.7,0.5,1.2,0.5
				h9.7c0.5,0,0.9-0.2,1.2-0.5c0.3-0.3,0.5-0.7,0.5-1.2V57.1h11.4c0.5,0,0.9-0.2,1.2-0.5C91.1,56.3,91.3,55.9,91.3,55.5z"/>
		</g>
	</g>
</g>
</svg>
