<?xml version="1.0" encoding="utf-8"?>
<!-- Generator: Adobe Illustrator 21.0.0, SVG Export Plug-In . SVG Version: 6.00 Build 0)  -->
<svg version="1.1" id="Layer_1" xmlns="http://www.w3.org/2000/svg" xmlns:xlink="http://www.w3.org/1999/xlink" x="0px" y="0px"
	 viewBox="0 0 144 144" style="enable-background:new 0 0 144 144;" xml:space="preserve">
<style type="text/css">
	.st0{fill:#FFFFFF;}
	.st1{fill:#FFCD39;}
</style>
<g id="XMLID_2_">
	<path id="XMLID_38_" class="st0" d="M77.2,37.1c4.4-0.9,7.2-5.2,6.3-9.6c-0.9-4.4-5.2-7.3-9.5-6.4c-4.4,0.9-7.2,5.2-6.3,9.6
		C68.6,35.1,72.9,38,77.2,37.1z"/>
	<path id="XMLID_34_" class="st0" d="M82.8,85.9v-5.8h19.4v5.8H82.8z M87.4,70.3c0.4,0.1,0.9,0.2,1.3,0.2c1.7,0,3.2-1,3.8-2.7
		c0.2-0.7,0.3-1.4,0.1-2.1h0.2c5.1,0,9.1,4.6,9.4,10.9H82.9c0.2-2.7,1-5.1,2.3-7L87.4,70.3z M105.8,103.2V77.6
		c0-8.8-5.6-15.4-13-15.4h-0.4c-1,0-2.1,0.1-3,0.4l-13.8-4.7l-4.6-17.9c-0.6-2.7-3.4-5.7-7.6-5.8c-1.4,0-3.6,0.6-4.8,1.8l-16,15.8
		c-2.6,2.3-2.7,5.7-2.8,8V106c0,1.9,0.6,3.4,1.9,4.7c1.3,1.3,2.8,1.9,4.6,1.9c1.9,0,3.4-0.6,4.7-1.9c1.3-1.3,1.9-2.8,1.9-4.7V65.3
		l11.5-11.6l3.9,8.8c0,0.1,0.1,0.1,0.1,0.2c0.1,0.1,0.1,0.2,0.2,0.3c0.1,0.2,0.2,0.3,0.3,0.5c0.1,0.1,0.1,0.2,0.2,0.3
		c0.1,0.1,0.3,0.3,0.5,0.4c0.1,0.1,0.2,0.1,0.2,0.2c0.3,0.2,0.5,0.3,0.8,0.4l10.9,3.7c-1.5,2.5-2.4,5.7-2.4,9.2v32.7
		c0,1,0.8,1.8,1.8,1.8c1,0,1.8-0.8,1.8-1.8V89.5h19.4v13.8c-1.7,0.7-3,2.4-3,4.4c0,2.6,2.1,4.8,4.8,4.8c2.6,0,4.8-2.1,4.8-4.8
		C108.8,105.6,107.6,103.9,105.8,103.2z"/>
</g>
<g>
	<circle class="st1" cx="71.9" cy="71.9" r="70.9"/>
	<g>
		<path class="st0" d="M109.4,100.1h-6.5V61.8h-7.3v38.3H72.2H48.3V61.8H41v38.3h-6c0,0-1,0-1.5,0.5c-0.6,0.6-0.6,1.4-0.6,1.4v7.9
			h39.3h39.3V102c0,0,0-0.8-0.6-1.4C110.4,100,109.4,100.1,109.4,100.1z"/>
		<path class="st0" d="M72.2,25.2c0,0-0.2-0.1-0.3-0.1c-0.2,0-0.3,0.1-0.3,0.1L24.9,57.5l5.6,8.1l41.4-28.7l41.4,28.7l5.6-8.1
			L72.2,25.2z"/>
		<path class="st0" d="M72.1,91.4c7.2-3.6,11.1-8.1,13-10.7c2.2-2.9,2.8-4.9,3-6.6c0.1-0.6,0.8-6.7-3.4-10c-0.5-0.5-2.1-1.7-4.4-1.7
			c-3.3-0.1-6.5,2.2-8.2,5.9c-1.7-3.7-5-6-8.2-5.9c-2.3,0.1-3.9,1.3-4.4,1.7c-4.2,3.3-3.5,9.4-3.4,10c0.2,1.7,0.8,3.6,3,6.6
			C61,83.2,64.9,87.8,72.1,91.4z"/>
	</g>
</g>
</svg>
