<?xml version="1.0" encoding="utf-8"?>
<!-- Generator: Adobe Illustrator 21.0.0, SVG Export Plug-In . SVG Version: 6.00 Build 0)  -->
<svg version="1.1" id="Layer_1" xmlns="http://www.w3.org/2000/svg" xmlns:xlink="http://www.w3.org/1999/xlink" x="0px" y="0px"
	 viewBox="0 0 144 144" style="enable-background:new 0 0 144 144;" xml:space="preserve">
<style type="text/css">
	.st0{fill:#0493B6;}
	.st1{fill:#FFFFFF;}
</style>
<g id="XMLID_2_">
	<circle id="XMLID_26_" class="st0" cx="72" cy="72" r="70.9"/>
	<path id="XMLID_7_" class="st1" d="M78.8,70l3,26.4c0,0,0.2,1.8,0.2,3.6l0,17.3c0,5.7-8.6,5.7-8.6,0l0-18.4c0,0-1.5-13.5-1.5-13.5
		c-0.1-0.5-0.6-0.5-0.7,0L69.9,98c-0.2,1.4-0.3,1.9-0.6,3.5c-0.2,0.8-4.1,16.7-4.1,16.7c-1.4,5.5-9.7,3.5-8.3-2l4.4-18.1L64.1,70
		L63.8,55l-3.9,5.2L57,75.5c-0.9,4.6-7,3.1-6.2-1c1.4-6.8,1.9-10.6,2.4-13.3c0.6-3.6,1-4.8,3.2-8c2.3-3.2,5.4-7.6,8.2-11.4
		c0.9-1.2,2.2-2.1,3.7-2.1h6c1.8,0,3.4,1.2,4,2.8l9.1,20.5l8.8,7.2c4,3-0.4,8-3.8,5.3c-5.8-4.6-7.9-5.8-9.3-7.5
		c-1.2-1.5-2-3.4-4.4-8C78.7,59.9,78.8,69.9,78.8,70z M80.6,30c0,4.2-3.4,7.6-7.6,7.6s-7.6-3.4-7.6-7.6c0-4.2,3.4-7.6,7.6-7.6
		C77.2,22.4,80.6,25.8,80.6,30z"/>
</g>
</svg>
