<?xml version="1.0" encoding="utf-8"?>
<!-- Generator: Adobe Illustrator 21.0.0, SVG Export Plug-In . SVG Version: 6.00 Build 0)  -->
<svg version="1.1" id="Layer_1" xmlns="http://www.w3.org/2000/svg" xmlns:xlink="http://www.w3.org/1999/xlink" x="0px" y="0px"
	 viewBox="0 0 144 144" style="enable-background:new 0 0 144 144;" xml:space="preserve">
<style type="text/css">
	.st0{fill:#9DA638;}
	.st1{display:none;}
	.st2{display:inline;}
	.st3{fill:#FFFFFF;}
	.st4{display:inline;fill:#231F20;}
	.st5{enable-background:new    ;}
</style>
<g id="Layer_1_1_">
	<circle id="XMLID_25_" class="st0" cx="72.2" cy="71.6" r="70.8"/>
</g>
<g id="Layer_2" class="st1">
	<g class="st2">
		<g>
			<g>
				<path class="st3" d="M77.7,37.2c-0.9,0-1.7,0-2.6,0.1c-9.6,0.7-18.4,5.1-24.7,12.3S41,66.2,41.7,75.8
					c1.3,18.8,17.1,33.5,35.9,33.5l0,0c0.9,0,1.7,0,2.6-0.1c9.6-0.7,18.4-5.1,24.7-12.3c6.3-7.3,9.4-16.6,8.7-26.2
					C112.3,51.9,96.5,37.2,77.7,37.2z M84.8,76.7c-0.2,3.3-3,5.9-6.3,5.9c-0.2,0-0.3,0-0.5,0c-2.7-0.2-4.9-2.1-5.6-4.6H56.2
					c-0.9,0-1.7-0.8-1.7-1.7c0-0.9,0.8-1.7,1.7-1.7h16.2c0.7-2.4,2.7-4.2,5.2-4.6V47.5c0-0.7,0.6-1.3,1.3-1.3s1.3,0.6,1.3,1.3v22.7
					C83,70.9,85,73.6,84.8,76.7z"/>
			</g>
			<g>
				<path class="st3" d="M118.6,70.3c-1.6-22.6-21.2-39.6-43.8-38s-39.6,21.2-38,43.8s21.2,39.6,43.8,38
					C103.2,112.6,120.2,92.9,118.6,70.3z M105.8,97.7c-6.5,7.5-15.6,12-25.5,12.8c-0.9,0.1-1.8,0.1-2.7,0.1l0,0
					c-19.4,0-35.8-15.2-37.1-34.6c-0.7-9.9,2.5-19.5,9-27.1c6.5-7.5,15.6-12,25.5-12.8c0.9-0.1,1.8-0.1,2.7-0.1
					c19.4,0,35.8,15.2,37.1,34.6C115.5,80.5,112.3,90.1,105.8,97.7z"/>
			</g>
		</g>
		<g>
			<circle class="st3" cx="78.5" cy="76.4" r="3.5"/>
		</g>
	</g>
	<path class="st4" d="M317.4,99.3"/>
</g>
<g id="Layer_3" class="st1">
	<g class="st2">
		<polygon class="st3" points="84.1,42 76.1,42 76.1,34.1 66.1,34.1 66.1,42 58.2,42 58.2,52.1 66.1,52.1 66.1,60 76.1,60 
			76.1,52.1 84.1,52.1 		"/>
		<path class="st3" d="M30.5,102.2h5c0.6,0,1.1-0.5,1.1-1.1v-1.8V76.8V61.5c0-0.6-0.5-1.1-1.1-1.1h-5c-0.6,0-1.1,0.5-1.1,1.1v39.7
			C29.4,101.8,29.8,102.2,30.5,102.2z"/>
		<path class="st3" d="M108.1,69.2v7.6v2.5v20v1.8c0,0.6,0.5,1.1,1.1,1.1h5.3c0.6,0,1.1-0.5,1.1-1.1V65.8c0-0.6-0.5-1.1-1.1-1.1
			h-5.3c-0.6,0-1.1,0.5-1.1,1.1V69.2z"/>
		<rect x="39.7" y="79.9" class="st3" width="65.3" height="16.3"/>
		<path class="st3" d="M87.8,73.2v2.1c0,1.1,0.9,2,2,2H105v-6H89.8C88.7,71.3,87.8,72.1,87.8,73.2z"/>
	</g>
</g>
<g class="st5">
	<path class="st3" d="M50.5,111.6h8.5v6H43.4V90.3h7.1V111.6z"/>
	<path class="st3" d="M73.8,117.7h-7.1V96.3h-5.9v-6h18.9v6h-5.9V117.7z"/>
	<path class="st3" d="M104.3,99.5c-1.5-2-3.8-3-6.2-3c-4.4,0-7.3,3.3-7.3,7.6c0,4.3,3,7.4,7.4,7.4c2.3,0,4.7-1.1,6.1-2.9v8.5
		c-2.4,0.7-4.1,1.3-6.3,1.3c-3.8,0-7.4-1.5-10.3-4c-3-2.7-4.4-6.3-4.4-10.4c0-3.7,1.4-7.3,4-10c2.7-2.8,6.6-4.4,10.4-4.4
		c2.3,0,4.4,0.5,6.5,1.4V99.5z"/>
</g>
<path class="st3" d="M95.5,43c-4.7,0-8.5,3.8-8.5,8.5c0,4.7,3.8,8.5,8.5,8.5c4.7,0,8.5-3.8,8.5-8.5C104,46.8,100.2,43,95.5,43z
	 M95.5,56.6c-2.8,0-5.1-2.3-5.1-5.1c0-2.8,2.3-5.1,5.1-5.1c2.8,0,5.1,2.3,5.1,5.1C100.6,54.3,98.3,56.6,95.5,56.6z M71.6,63.5
	C71.6,63.5,71.5,63.4,71.6,63.5l0-5.5c7.8-1.6,13.7-8.5,13.7-16.7h-3.4c0,7.5-6.1,13.7-13.7,13.7c-7.5,0-13.7-6.1-13.7-13.7h-3.4
	c0,8.3,5.9,15.1,13.7,16.7v5.5v0c0,1.9,1.5,3.4,3.4,3.4C70,66.9,71.6,65.3,71.6,63.5z M93.7,62v4.9c0,6.6-5.4,12-12,12
	c-6,0-11-4.4-11.8-10.2c-0.6,0.2-1.2,0.3-1.8,0.3c-0.6,0-1.1-0.1-1.6-0.3c0.9,7.6,7.4,13.6,15.3,13.6c8.5,0,15.4-6.9,15.4-15.4V62
	c-0.6,0.1-1.1,0.2-1.7,0.2C94.9,62.1,94.3,62.1,93.7,62z M76.7,29.3c1.3,0,2.3-0.7,2.9-1.7h2.2v11.6h3.4V27.6c0-1.9-1.5-3.4-3.4-3.4
	h-2.2c-0.6-1-1.7-1.7-2.9-1.7c-1.9,0-3.4,1.5-3.4,3.4C73.3,27.8,74.8,29.3,76.7,29.3z M54.5,27.6h2.2c0.6,1,1.7,1.7,2.9,1.7
	c1.9,0,3.4-1.5,3.4-3.4c0-1.9-1.5-3.4-3.4-3.4c-1.3,0-2.4,0.7-2.9,1.7h-2.2c-1.9,0-3.4,1.5-3.4,3.4v11.6h3.4V27.6z"/>
</svg>
