<?xml version="1.0" encoding="utf-8"?>
<!-- Generator: Adobe Illustrator 21.0.0, SVG Export Plug-In . SVG Version: 6.00 Build 0)  -->
<svg version="1.1" id="Layer_2" xmlns="http://www.w3.org/2000/svg" xmlns:xlink="http://www.w3.org/1999/xlink" x="0px" y="0px"
	 viewBox="0 0 144 144" style="enable-background:new 0 0 144 144;" xml:space="preserve">
<style type="text/css">
	.st0{fill:#D60C8C;}
	.st1{fill:#FFFFFF;}
</style>
<g>
	<circle class="st0" cx="71.7" cy="72.1" r="70.8"/>
	<g>
		<path class="st1" d="M46.8,113.4l2.7,0l19.1-23.6c-2.1-2.6-4.5-5.6-7.1-8.9c-0.4-0.5-1-0.6-1.5-0.3l-13.7,7.3
			c-0.4,0.2-0.6,0.6-0.6,1.1l0,23.2C45.6,112.8,46.1,113.4,46.8,113.4z"/>
		<path class="st1" d="M82,80.9l-9.3,11.6c-0.1,0.2-0.3,0.3-0.5,0.4l-16.6,20.5l16.1,0l24.9,0c0.7,0,1.2-0.5,1.2-1.2l0-23.2
			c0-0.4-0.2-0.9-0.6-1.1l-13.7-7.3C83,80.3,82.3,80.4,82,80.9z M89.6,100.2l-9.6,0l0-3.4l9.6,0L89.6,100.2z"/>
		<path class="st1" d="M52.2,72.6c3.8,2.3,11.9,4.8,15.3,4.5l0-6c-10-6.3-7.4-17.9-0.3-24.1c0.3-0.3,0.7-0.6,1.1-0.8
			c1.3,5.2,7.7,11.9,14.3,12.2c0.5,4.7-1.3,9.4-6.5,12.7l0,6c0.8,0.1,1.9,0,3.1-0.2c0.1,0,0.2,0,0.3,0c3.9-0.7,9.2-2.5,12-4.2
			c0.5-0.3,0.7-1,0.5-1.5c-0.9-1.9-3-6.3-4.5-8.7c1.4-1.4,1.5-3.6,0.3-5.1L88,46.2l-2.1-1.8l1.7-8.1c0.1-0.6-0.1-1.1-0.6-1.4
			c-9.3-5.4-21.1-5.4-30.4,0c-0.5,0.3-0.7,0.9-0.6,1.4l1.7,8.1l-2.1,1.8L56,57.2c-1.2,1.5-1.1,3.7,0.3,5.1c-1.6,2.4-3.7,6.8-4.5,8.7
			C51.5,71.6,51.7,72.2,52.2,72.6z M68.1,36.1l2.2,0l0-2.2l3,0l0,2.2l2.2,0l0,3l-2.2,0l0,2.2l-3,0l0-2.2l-2.2,0L68.1,36.1z"/>
	</g>
</g>
</svg>
